<svg xmlns="http://www.w3.org/2000/svg" width="600" height="1000" viewBox="0 0 600 1000">
  <rect width="600" height="1000" rx="56" fill="#F3F6FA"/>
  <rect x="72" y="48" width="456" height="904" rx="48" fill="#FFFDF9" stroke="#1557B0" stroke-width="10"/>
  <rect x="222" y="78" width="156" height="18" rx="9" fill="#CBD9EA"/>
  <circle cx="300" cy="260" r="88" fill="#E7EFFA" stroke="#1557B0" stroke-width="8"/>
  <path d="M250 276c30 32 70 32 100 0M262 238h4M334 238h4" fill="none" stroke="#1557B0" stroke-width="10" stroke-linecap="round"/>
  <rect x="118" y="410" width="298" height="112" rx="34" fill="#E7EFFA"/>
  <path d="M148 452h228M148 484h176" stroke="#1557B0" stroke-width="10" stroke-linecap="round"/>
  <rect x="184" y="568" width="298" height="112" rx="34" fill="#1557B0"/>
  <path d="M224 610h218M266 642h176" stroke="#FFFFFF" stroke-width="10" stroke-linecap="round"/>
  <rect x="118" y="760" width="364" height="76" rx="38" fill="#F3F6FA" stroke="#CBD9EA" stroke-width="6"/>
  <circle cx="446" cy="798" r="24" fill="#1557B0"/>
</svg>
